<?xml version="1.0" encoding="utf-8"?>
<!-- Generator: Adobe Illustrator 20.0.0, SVG Export Plug-In . SVG Version: 6.00 Build 0)  -->
<svg version="1.1" id="レイヤー_1" xmlns="http://www.w3.org/2000/svg" xmlns:xlink="http://www.w3.org/1999/xlink" x="0px"
	 y="0px" viewBox="0 0 841.9 595.3" style="enable-background:new 0 0 841.9 595.3;" xml:space="preserve">
<style type="text/css">
	.st0{fill:#DBB868;}
	.st1{fill:#231815;}
</style>
<g>
</g>
<g>
	<polygon class="st0" points="515.6,238.9 481.3,227.4 447.1,238.9 427.7,348.8 481.3,348.8 535,348.8 	"/>
	<g>
		<path class="st1" d="M508.7,288.2l-0.2-0.1c-3.1-0.1-6-0.8-9.1-0.8c-3,0-5.9,0.5-8.8,1.6h-0.1c-0.1,0-0.1-0.1-0.1-0.1
			c0-0.1,0-0.1,0.1-0.1c1.9-1,4.5-2.4,5.8-3.8c-1.4-0.1-2.8-0.1-4.2-0.1c-2.6,0-5.2,0.1-7.7,1l0.9,2c0.2,0.5,0.3,0.9,0.3,1.4
			c-0.3,3-0.6,5.9-0.6,8.9c0,0.9,0,1.7,0.1,2.6l5.5-5.6c-1.3-0.9-2.7-1.6-4-2.2c-0.1-0.1-0.1-0.1-0.1-0.2c0-0.6,4.1-1.3,6.5-1.3
			c4.6,0,13.2,1.6,13.2,7.6c0,1.8-1.6,3.4-3.4,3.4c-2.9,0-6-4-8.6-5.2c-3.9,6-8.6,11.5-13.2,16.9c-6.6,7.9-16.5,9.5-26.2,9.5
			c-0.1,0-0.3-0.1-0.3-0.2c0-0.1,0.1-0.1,0.1-0.2c9.1-4,18.8-8.8,25.1-16.6c-2.3-1.7-4.5-5.1-7-7.5c-0.1-0.1-0.1-0.1-0.1-0.2
			s0.1-0.1,0.1-0.1h0.1c1.3,0.4,2.7,0.8,4,0.8c0.6,0,1.2-0.1,1.8-0.3c1.2-1.4,1.4-3.2,1.4-4.9c0-1.5-0.1-2.9-0.1-4.4
			c0-1.1-0.2-2.2-0.7-3.2c-8.6,1.9-16.9,5.1-25.1,8.5c-0.1,0.1-0.2,0.1-0.3,0.1c-0.3,0-0.6-0.2-0.8-0.5l-0.2-0.6
			c-0.2-0.4-0.3-0.9-0.3-1.4v-0.4c0.2-1,0.7-1.9,1.5-2.5c1.2-0.9,2.9-1.2,4.3-1.7c4-1.3,10.4-4.3,10.4-9.4c0-1-0.2-2.1-0.3-3.2
			c-0.8-0.8-1.7-1.3-2.7-1.4c-0.3-0.1-0.7-0.2-0.7-0.5s2.1-2.8,5-2.8c2.3,0,4.7,1.6,4.7,4c0,2.7-0.9,5.8-1.7,8.4l4.9-1.4l-2.7-4.3
			c-0.1-0.1-0.1-0.3-0.1-0.5s0.1-0.1,0.1-0.1h0.1c1.3,0.4,2.5,1.2,3.8,1.2V268c-0.8-0.7-1.9-1.1-3-1.4c-0.3-0.1-0.7-0.3-0.7-0.5
			c0-0.1,0-0.1,0.1-0.2l2.1-2.1c1-1,3.4-1,3.8-1c2.2,0,4.7,1.6,4.7,4c0,1.9-1.2,3.9-1.2,5.9c0,0.4,0,0.8,0.1,1.2
			c1.6-0.6,3.2-1.5,4.7-2.5l-1.2-2c-0.1-0.1-0.1-0.2-0.1-0.3c0-0.2,0.1-0.3,0.3-0.3h0.1c3.4,0.5,9.1,0.5,10.2,4.1
			c0.1,0.1,0.1,0.2,0.1,0.3c0,0.5,0,1.4-14.1,4.3l-0.1,2.5c3.6-0.3,7.4-0.8,11-0.8c12.1,0,15.1,4.8,15.1,6.2
			C511.2,286.5,509.8,288.2,508.7,288.2L508.7,288.2z M475.3,292.8c-1.2,1.9-2.5,4.2-3.5,6.2c-1.1,2.1-1.8,4.7-3.2,6.6
			c-0.5,0.6-1.7,2.1-3,2.1c-1.6,0-3-3.4-3-6.5c0-2.7,0.9-6.4,1.5-6.4c0.1,0,0.3,0.1,0.3,0.2l1.7,3.4c2.8-1,6.4-3.8,8.8-5.7
			c0.1,0,0.1-0.1,0.1-0.1S475.3,292.6,475.3,292.8L475.3,292.8z"/>
	</g>
</g>
</svg>
